<svg xmlns="http://www.w3.org/2000/svg" viewBox="0 0 48 48"><rect width="48" height="48" rx="8" fill="#181818"/><path d="M24 6C14 6 6 14 6 24c0 8 5.2 14.7 12.4 17.1.9.2 1.2-.4 1.2-.9v-3.1c-5 1.1-6.1-2.4-6.1-2.4-.8-2.1-2-2.7-2-2.7-1.7-1.1.1-1.1.1-1.1 1.8.1 2.8 1.9 2.8 1.9 1.6 2.8 4.3 2 5.3 1.5.2-1.2.6-2 1.1-2.4-4-.5-8.2-2-8.2-8.9 0-2 .7-3.6 1.9-4.9-.2-.5-.8-2.3.2-4.8 0 0 1.5-.5 5 1.9 1.5-.4 3-.6 4.5-.6s3.1.2 4.5.6c3.5-2.4 5-1.9 5-1.9 1 2.5.4 4.3.2 4.8 1.2 1.3 1.9 2.9 1.9 4.9 0 7-4.2 8.4-8.2 8.9.6.6 1.2 1.6 1.2 3.3v4.9c0 .5.3 1.1 1.2.9C36.8 38.7 42 32 42 24c0-10-8-18-18-18z" fill="#fff"/></svg>
