<svg xmlns="http://www.w3.org/2000/svg" viewBox="0 0 48 48"><path d="M18.5 28.5s-1.5.9 1 1.2c3 .3 4.6.3 7.9-.3 0 0 .9.5 2.1 1-7.4 3.2-16.8-.2-11-1.9zm-.9-4.4s-1.7 1.2.8 1.5c3.3.3 5.8.3 10.2-.5 0 0 .6.6 1.6 1-9 2.6-19-.2-12.6-2zm5.2-7.5c1.9 2.2-.5 4.1-.5 4.1s4.8-2.5 2.6-5.6c-2-2.9-3.6-4.3 4.8-9.3 0 0-13.2 3.3-6.9 10.8z" fill="#E76F00"/><path d="M32.5 31.5s1.1.9-1.2 1.6c-4.3 1.3-17.9 1.7-21.7 0-1.4-.6 1.2-1.4 2-1.6.8-.2 1.3-.1 1.3-.1-1.5-1-9.5 2-4.1 2.9 14.9 2.3 27.2-1 23.7-2.8zM19.3 22s-6.7 1.6-2.4 2.2c1.8.2 5.5.2 8.9-.1 2.8-.2 5.5-.8 5.5-.8s-1 .4-1.6.9c-6.7 1.8-19.6 1-15.9-.9 3.1-1.6 5.5-1.3 5.5-1.3zm11.8 6.6c6.8-3.5 3.7-7 1.5-6.5-.6.1-.8.2-.8.2s.2-.3.6-.5c4.5-1.6 8 4.7-1.4 7.2 0 0 .1-.1.1-.4z" fill="#5382A1"/><path d="M26.5 2s3.8 3.8-3.6 9.6c-5.9 4.7-1.3 7.3 0 10.4-3.5-3.1-6-5.9-4.3-8.4C21.1 10.1 28 8.2 26.5 2z" fill="#E76F00"/><path d="M20 37.5c6.5.4 16.5-.2 16.7-3.3 0 0-.5 1.2-5.3 2.1-5.5 1.1-12.3 1-16.3.3 0 0 .8.7 4.9.9z" fill="#5382A1"/></svg>
