<svg xmlns="http://www.w3.org/2000/svg" viewBox="0 0 48 48"><path fill="#F7DF1E" d="M0 0h48v48H0z"/><path d="M12.7 38.2l3.7-2.2c.7 1.3 1.3 2.3 2.9 2.3 1.5 0 2.4-.6 2.4-2.8V20h4.5v15.6c0 4.6-2.7 6.7-6.6 6.7-3.6 0-5.6-1.8-6.9-4.1m16.3-.5l3.7-2.1c1 1.6 2.2 2.7 4.4 2.7 1.9 0 3-.9 3-2.2 0-1.5-1.2-2.1-3.3-3l-1.1-.5c-3.3-1.4-5.4-3.1-5.4-6.8 0-3.4 2.6-5.9 6.6-5.9 2.9 0 4.9 1 6.4 3.6l-3.5 2.2c-.8-1.4-1.6-1.9-2.9-1.9s-2.1.8-2.1 1.9c0 1.3.8 1.8 2.7 2.6l1.1.5c3.8 1.6 6 3.3 6 7 0 4-3.1 6.2-7.4 6.2-4.1 0-6.8-2-8.1-4.6"/></svg>
