<svg xmlns="http://www.w3.org/2000/svg" viewBox="0 0 48 48"><path fill="#306998" d="M24 4.2C13.5 4.2 14.3 8.8 14.3 8.8l.02 4.7H24.3v1.4H10.2S4 14.1 4 24.1s5.4 9.6 5.4 9.6h3.2v-4.6s-.2-5.4 5.3-5.4h9.1s5.2.1 5.2-5V10c0 0 .8-5.8-8.2-5.8zM18 8c.9 0 1.7.7 1.7 1.7s-.7 1.7-1.7 1.7c-1 0-1.7-.7-1.7-1.7S17 8 18 8z"/><path fill="#FFD43B" d="M24 43.8c10.5 0 9.7-4.6 9.7-4.6l-.02-4.7H23.7v-1.4h14.1S44 33.9 44 23.9s-5.4-9.6-5.4-9.6h-3.2v4.6s.2 5.4-5.3 5.4h-9.1s-5.2-.1-5.2 5V38s-.8 5.8 8.2 5.8zM30 40c-.9 0-1.7-.7-1.7-1.7s.7-1.7 1.7-1.7c1 0 1.7.7 1.7 1.7s-.7 1.7-1.7 1.7z"/></svg>
